<svg xmlns="http://www.w3.org/2000/svg" xmlns:xlink="http://www.w3.org/1999/xlink" width="1500" height="1500" viewBox="0 0 1500 1500" preserveAspectRatio="xMidYMid meet" version="1.0"><defs><clipPath id="cb92bd1ba3"><path d="M 750 0 C 335.785156 0 0 335.785156 0 750 C 0 1164.214844 335.785156 1500 750 1500 C 1164.214844 1500 1500 1164.214844 1500 750 C 1500 335.785156 1164.214844 0 750 0 Z M 750 0 " clip-rule="nonzero"/></clipPath><clipPath id="524ebc8420"><path d="M 0 0 L 1500 0 L 1500 1500 L 0 1500 Z M 0 0 " clip-rule="nonzero"/></clipPath><clipPath id="a151b530b5"><path d="M 750 0 C 335.785156 0 0 335.785156 0 750 C 0 1164.214844 335.785156 1500 750 1500 C 1164.214844 1500 1500 1164.214844 1500 750 C 1500 335.785156 1164.214844 0 750 0 Z M 750 0 " clip-rule="nonzero"/></clipPath><clipPath id="a73a4b31a0"><rect x="0" width="1500" y="0" height="1500"/></clipPath><clipPath id="38857dcaae"><path d="M 22 22 L 1478 22 L 1478 1478 L 22 1478 Z M 22 22 " clip-rule="nonzero"/></clipPath><clipPath id="5d36bb79f2"><path d="M 1296.523438 -120.742188 L 1620.816406 1296.890625 L 203.1875 1621.183594 L -121.105469 203.550781 Z M 1296.523438 -120.742188 " clip-rule="nonzero"/></clipPath><clipPath id="dc8960f036"><path d="M 1296.523438 -120.742188 L 1620.816406 1296.890625 L 203.1875 1621.183594 L -121.105469 203.550781 Z M 1296.523438 -120.742188 " clip-rule="nonzero"/></clipPath><clipPath id="825e273675"><path d="M 404 404 L 1096 404 L 1096 1096 L 404 1096 Z M 404 404 " clip-rule="nonzero"/></clipPath><clipPath id="356e386840"><path d="M 1296.523438 -120.742188 L 1620.816406 1296.890625 L 203.1875 1621.183594 L -121.105469 203.550781 Z M 1296.523438 -120.742188 " clip-rule="nonzero"/></clipPath><clipPath id="41944d90eb"><path d="M 1296.523438 -120.742188 L 1620.816406 1296.890625 L 203.1875 1621.183594 L -121.105469 203.550781 Z M 1296.523438 -120.742188 " clip-rule="nonzero"/></clipPath><clipPath id="2ac83edb71"><path d="M 143 212 L 429 212 L 429 583 L 143 583 Z M 143 212 " clip-rule="nonzero"/></clipPath><clipPath id="69b2b6710a"><path d="M 1296.523438 -120.742188 L 1620.816406 1296.890625 L 203.1875 1621.183594 L -121.105469 203.550781 Z M 1296.523438 -120.742188 " clip-rule="nonzero"/></clipPath><clipPath id="0e7f2a9440"><path d="M 1296.523438 -120.742188 L 1620.816406 1296.890625 L 203.1875 1621.183594 L -121.105469 203.550781 Z M 1296.523438 -120.742188 " clip-rule="nonzero"/></clipPath><clipPath id="c3f78d98ab"><path d="M 102 176 L 406 176 L 406 571 L 102 571 Z M 102 176 " clip-rule="nonzero"/></clipPath><clipPath id="3ba9ebbc65"><path d="M 1296.523438 -120.742188 L 1620.816406 1296.890625 L 203.1875 1621.183594 L -121.105469 203.550781 Z M 1296.523438 -120.742188 " clip-rule="nonzero"/></clipPath><clipPath id="3e12eb28ec"><path d="M 1296.523438 -120.742188 L 1620.816406 1296.890625 L 203.1875 1621.183594 L -121.105469 203.550781 Z M 1296.523438 -120.742188 " clip-rule="nonzero"/></clipPath><clipPath id="7ba50b8364"><path d="M 368 410 L 554 410 L 554 649 L 368 649 Z M 368 410 " clip-rule="nonzero"/></clipPath><clipPath id="e8e021023a"><path d="M 1296.523438 -120.742188 L 1620.816406 1296.890625 L 203.1875 1621.183594 L -121.105469 203.550781 Z M 1296.523438 -120.742188 " clip-rule="nonzero"/></clipPath><clipPath id="6b98e150e0"><path d="M 1296.523438 -120.742188 L 1620.816406 1296.890625 L 203.1875 1621.183594 L -121.105469 203.550781 Z M 1296.523438 -120.742188 " clip-rule="nonzero"/></clipPath><clipPath id="88dd6fab2b"><path d="M 233 291 L 479 291 L 479 609 L 233 609 Z M 233 291 " clip-rule="nonzero"/></clipPath><clipPath id="bfe3aa3c4a"><path d="M 1296.523438 -120.742188 L 1620.816406 1296.890625 L 203.1875 1621.183594 L -121.105469 203.550781 Z M 1296.523438 -120.742188 " clip-rule="nonzero"/></clipPath><clipPath id="8f088dd452"><path d="M 1296.523438 -120.742188 L 1620.816406 1296.890625 L 203.1875 1621.183594 L -121.105469 203.550781 Z M 1296.523438 -120.742188 " clip-rule="nonzero"/></clipPath><clipPath id="872a175bda"><path d="M 280 332 L 504 332 L 504 623 L 280 623 Z M 280 332 " clip-rule="nonzero"/></clipPath><clipPath id="4cc05b78ef"><path d="M 1296.523438 -120.742188 L 1620.816406 1296.890625 L 203.1875 1621.183594 L -121.105469 203.550781 Z M 1296.523438 -120.742188 " clip-rule="nonzero"/></clipPath><clipPath id="00d8f5485e"><path d="M 1296.523438 -120.742188 L 1620.816406 1296.890625 L 203.1875 1621.183594 L -121.105469 203.550781 Z M 1296.523438 -120.742188 " clip-rule="nonzero"/></clipPath><clipPath id="669745c751"><path d="M 326 373 L 530 373 L 530 636 L 326 636 Z M 326 373 " clip-rule="nonzero"/></clipPath><clipPath id="062ce7e452"><path d="M 1296.523438 -120.742188 L 1620.816406 1296.890625 L 203.1875 1621.183594 L -121.105469 203.550781 Z M 1296.523438 -120.742188 " clip-rule="nonzero"/></clipPath><clipPath id="049c83b268"><path d="M 1296.523438 -120.742188 L 1620.816406 1296.890625 L 203.1875 1621.183594 L -121.105469 203.550781 Z M 1296.523438 -120.742188 " clip-rule="nonzero"/></clipPath><clipPath id="f101be30af"><path d="M 186 249 L 452 249 L 452 595 L 186 595 Z M 186 249 " clip-rule="nonzero"/></clipPath><clipPath id="aebf2330bf"><path d="M 1296.523438 -120.742188 L 1620.816406 1296.890625 L 203.1875 1621.183594 L -121.105469 203.550781 Z M 1296.523438 -120.742188 " clip-rule="nonzero"/></clipPath><clipPath id="7483c7ced0"><path d="M 1296.523438 -120.742188 L 1620.816406 1296.890625 L 203.1875 1621.183594 L -121.105469 203.550781 Z M 1296.523438 -120.742188 " clip-rule="nonzero"/></clipPath><clipPath id="a46ac8dafa"><path d="M 1034 789 L 1191 789 L 1191 1080 L 1034 1080 Z M 1034 789 " clip-rule="nonzero"/></clipPath><clipPath id="83d7ec497f"><path d="M 1296.523438 -120.742188 L 1620.816406 1296.890625 L 203.1875 1621.183594 L -121.105469 203.550781 Z M 1296.523438 -120.742188 " clip-rule="nonzero"/></clipPath><clipPath id="cb3bf0c6bc"><path d="M 1296.523438 -120.742188 L 1620.816406 1296.890625 L 203.1875 1621.183594 L -121.105469 203.550781 Z M 1296.523438 -120.742188 " clip-rule="nonzero"/></clipPath><clipPath id="9fd0582a0b"><path d="M 1190 815 L 1422 815 L 1422 1253 L 1190 1253 Z M 1190 815 " clip-rule="nonzero"/></clipPath><clipPath id="30fd9f410b"><path d="M 1296.523438 -120.742188 L 1620.816406 1296.890625 L 203.1875 1621.183594 L -121.105469 203.550781 Z M 1296.523438 -120.742188 " clip-rule="nonzero"/></clipPath><clipPath id="963e657df0"><path d="M 1296.523438 -120.742188 L 1620.816406 1296.890625 L 203.1875 1621.183594 L -121.105469 203.550781 Z M 1296.523438 -120.742188 " clip-rule="nonzero"/></clipPath><clipPath id="3394639141"><path d="M 1132 805 L 1336 805 L 1336 1189 L 1132 1189 Z M 1132 805 " clip-rule="nonzero"/></clipPath><clipPath id="1dbb90a509"><path d="M 1296.523438 -120.742188 L 1620.816406 1296.890625 L 203.1875 1621.183594 L -121.105469 203.550781 Z M 1296.523438 -120.742188 " clip-rule="nonzero"/></clipPath><clipPath id="11f12a716c"><path d="M 1296.523438 -120.742188 L 1620.816406 1296.890625 L 203.1875 1621.183594 L -121.105469 203.550781 Z M 1296.523438 -120.742188 " clip-rule="nonzero"/></clipPath><clipPath id="3ad78ff5dc"><path d="M 1162 810 L 1380 810 L 1380 1222 L 1162 1222 Z M 1162 810 " clip-rule="nonzero"/></clipPath><clipPath id="c42bad9ec3"><path d="M 1296.523438 -120.742188 L 1620.816406 1296.890625 L 203.1875 1621.183594 L -121.105469 203.550781 Z M 1296.523438 -120.742188 " clip-rule="nonzero"/></clipPath><clipPath id="cc48d71ebf"><path d="M 1296.523438 -120.742188 L 1620.816406 1296.890625 L 203.1875 1621.183594 L -121.105469 203.550781 Z M 1296.523438 -120.742188 " clip-rule="nonzero"/></clipPath><clipPath id="f1102574cc"><path d="M 1004 784 L 1147 784 L 1147 1048 L 1004 1048 Z M 1004 784 " clip-rule="nonzero"/></clipPath><clipPath id="90f8f28368"><path d="M 1296.523438 -120.742188 L 1620.816406 1296.890625 L 203.1875 1621.183594 L -121.105469 203.550781 Z M 1296.523438 -120.742188 " clip-rule="nonzero"/></clipPath><clipPath id="5ca0eb696f"><path d="M 1296.523438 -120.742188 L 1620.816406 1296.890625 L 203.1875 1621.183594 L -121.105469 203.550781 Z M 1296.523438 -120.742188 " clip-rule="nonzero"/></clipPath><clipPath id="b9b3a86a28"><path d="M 1066 794 L 1239 794 L 1239 1116 L 1066 1116 Z M 1066 794 " clip-rule="nonzero"/></clipPath><clipPath id="f67fe39a11"><path d="M 1296.523438 -120.742188 L 1620.816406 1296.890625 L 203.1875 1621.183594 L -121.105469 203.550781 Z M 1296.523438 -120.742188 " clip-rule="nonzero"/></clipPath><clipPath id="eb9026dc38"><path d="M 1296.523438 -120.742188 L 1620.816406 1296.890625 L 203.1875 1621.183594 L -121.105469 203.550781 Z M 1296.523438 -120.742188 " clip-rule="nonzero"/></clipPath><clipPath id="76b7f7aa41"><path d="M 1098 799 L 1286 799 L 1286 1151 L 1098 1151 Z M 1098 799 " clip-rule="nonzero"/></clipPath><clipPath id="9d734f974a"><path d="M 1296.523438 -120.742188 L 1620.816406 1296.890625 L 203.1875 1621.183594 L -121.105469 203.550781 Z M 1296.523438 -120.742188 " clip-rule="nonzero"/></clipPath><clipPath id="7bf4d29560"><path d="M 1296.523438 -120.742188 L 1620.816406 1296.890625 L 203.1875 1621.183594 L -121.105469 203.550781 Z M 1296.523438 -120.742188 " clip-rule="nonzero"/></clipPath></defs><g clip-path="url(#cb92bd1ba3)"><g transform="matrix(1, 0, 0, 1, 0, 0.000000000000112861)"><g clip-path="url(#a73a4b31a0)"><g clip-path="url(#524ebc8420)"><g clip-path="url(#a151b530b5)"><rect x="-330" width="2160" fill="#0f0f0f" height="2159.999904" y="-329.999985" fill-opacity="1"/></g></g></g></g></g><g clip-path="url(#38857dcaae)"><g clip-path="url(#5d36bb79f2)"><g clip-path="url(#dc8960f036)"><path fill="#ccccff" d="M 1450.894531 589.667969 L 1458.675781 587.886719 C 1369.140625 196.492188 979.257812 -48.195312 587.859375 41.324219 C 196.46875 130.871094 -48.210938 520.722656 41.324219 912.117188 C 130.855469 1303.496094 520.695312 1548.210938 912.089844 1458.675781 C 1303.484375 1369.140625 1548.207031 979.265625 1458.675781 587.886719 L 1443.109375 591.449219 C 1486.898438 782.859375 1448.953125 973.832031 1352.199219 1127.984375 C 1255.441406 1282.121094 1099.953125 1399.320312 908.53125 1443.109375 C 717.117188 1486.898438 526.144531 1448.953125 371.996094 1352.214844 C 217.859375 1255.457031 100.675781 1099.96875 56.890625 908.554688 C 13.097656 717.128906 51.027344 526.160156 147.765625 372.011719 C 244.523438 217.875 399.996094 100.679688 591.421875 56.890625 C 782.847656 13.097656 973.820312 51.042969 1127.96875 147.78125 C 1282.121094 244.535156 1399.320312 400.023438 1443.109375 591.449219 L 1450.894531 589.667969 " fill-opacity="1" fill-rule="nonzero"/></g></g></g><g clip-path="url(#825e273675)"><g clip-path="url(#356e386840)"><g clip-path="url(#41944d90eb)"><path fill="#ccccff" d="M 662.800781 769.949219 L 670.597656 768.164062 C 665.574219 746.214844 669.910156 724.398438 680.996094 706.710938 C 692.105469 689.054688 709.867188 675.648438 731.816406 670.628906 C 753.753906 665.609375 775.589844 669.957031 793.273438 681.027344 C 810.945312 692.132812 824.351562 709.894531 829.371094 731.84375 C 834.390625 753.78125 830.039062 775.601562 818.953125 793.289062 C 807.847656 810.960938 790.066406 824.355469 768.132812 829.371094 C 746.183594 834.394531 724.363281 830.058594 706.679688 818.972656 C 689.003906 807.867188 675.613281 790.101562 670.597656 768.164062 L 655.015625 771.730469 C 667.023438 824.15625 719.234375 856.9375 771.691406 844.9375 C 824.121094 832.945312 856.917969 780.730469 844.9375 728.285156 C 832.925781 675.84375 780.683594 643.070312 728.257812 655.0625 C 675.796875 667.0625 643.035156 719.285156 655.015625 771.730469 Z M 1078.773438 674.792969 L 1086.554688 673.011719 C 1044.03125 487.121094 858.855469 370.890625 672.972656 413.398438 C 487.070312 455.941406 370.886719 641.105469 413.398438 827.003906 C 455.9375 1012.890625 641.0625 1129.113281 826.972656 1086.585938 C 1012.835938 1044.070312 1129.082031 858.90625 1086.554688 673.011719 L 1070.992188 676.574219 C 1091.273438 765.238281 1073.703125 853.671875 1028.882812 925.078125 C 984.0625 996.472656 912.078125 1050.738281 823.410156 1071.019531 C 734.730469 1091.308594 646.3125 1073.734375 574.90625 1028.929688 C 503.515625 984.109375 449.261719 912.105469 428.976562 823.4375 C 408.691406 734.753906 426.25 646.34375 471.050781 574.921875 C 515.875 503.53125 587.855469 449.265625 676.539062 428.976562 C 765.207031 408.695312 853.625 426.269531 925.027344 471.074219 C 996.4375 515.90625 1050.703125 587.890625 1070.992188 676.574219 L 1078.773438 674.792969 " fill-opacity="1" fill-rule="nonzero"/></g></g></g><g clip-path="url(#2ac83edb71)"><g clip-path="url(#69b2b6710a)"><g clip-path="url(#0e7f2a9440)"><path fill="#ccccff" d="M 415.839844 213.300781 C 283.988281 295.851562 187.554688 424.542969 143.867188 571.945312 C 142.613281 576.183594 145.019531 580.625 149.257812 581.878906 C 153.476562 583.121094 157.917969 580.714844 159.175781 576.492188 C 201.753906 432.78125 295.832031 307.265625 424.324219 226.828125 C 428.0625 224.484375 429.191406 219.570312 426.851562 215.835938 C 424.507812 212.101562 419.574219 210.957031 415.839844 213.300781 " fill-opacity="1" fill-rule="nonzero"/></g></g></g><g clip-path="url(#c3f78d98ab)"><g clip-path="url(#3ba9ebbc65)"><g clip-path="url(#3e12eb28ec)"><path fill="#ccccff" d="M 393.371094 177.523438 C 252.390625 265.550781 149.546875 402.652344 103.179688 560.027344 C 101.941406 564.261719 104.363281 568.699219 108.597656 569.9375 C 112.820312 571.195312 117.257812 568.769531 118.511719 564.535156 C 163.765625 410.902344 264.222656 276.984375 401.828125 191.070312 C 405.5625 188.730469 406.695312 183.816406 404.367188 180.078125 C 402.023438 176.324219 397.109375 175.195312 393.355469 177.523438 " fill-opacity="1" fill-rule="nonzero"/></g></g></g><g clip-path="url(#7ba50b8364)"><g clip-path="url(#e8e021023a)"><g clip-path="url(#6b98e150e0)"><path fill="#ccccff" d="M 540.878906 412.148438 C 457.273438 464.003906 396.34375 544.902344 368.996094 638.082031 C 367.757812 642.316406 370.179688 646.753906 374.398438 647.996094 C 378.632812 649.234375 383.070312 646.8125 384.308594 642.578125 C 410.5625 553.152344 469.082031 475.476562 549.296875 425.726562 C 553.035156 423.398438 554.195312 418.476562 551.863281 414.722656 C 549.539062 410.984375 544.617188 409.824219 540.878906 412.148438 " fill-opacity="1" fill-rule="nonzero"/></g></g></g><g clip-path="url(#88dd6fab2b)"><g clip-path="url(#bfe3aa3c4a)"><g clip-path="url(#8f088dd452)"><path fill="#ccccff" d="M 465.972656 293.011719 C 352.820312 363.191406 270.613281 472.40625 233.804688 598.402344 C 232.578125 602.632812 235.003906 607.070312 239.238281 608.308594 C 243.472656 609.546875 247.90625 607.109375 249.148438 602.890625 C 284.851562 480.652344 364.597656 374.667969 474.402344 306.582031 C 478.140625 304.257812 479.304688 299.335938 476.972656 295.582031 C 474.644531 291.84375 469.726562 290.683594 465.972656 293.011719 " fill-opacity="1" fill-rule="nonzero"/></g></g></g><g clip-path="url(#872a175bda)"><g clip-path="url(#4cc05b78ef)"><g clip-path="url(#00d8f5485e)"><path fill="#ccccff" d="M 491.753906 334.046875 C 389.21875 397.957031 314.292969 497.625 280.542969 612.105469 C 279.300781 616.324219 281.710938 620.765625 285.945312 622.019531 C 290.167969 623.261719 294.605469 620.851562 295.859375 616.613281 C 328.515625 505.871094 401.03125 409.398438 500.199219 347.601562 C 503.933594 345.257812 505.082031 340.339844 502.753906 336.601562 C 500.421875 332.847656 495.492188 331.707031 491.753906 334.046875 " fill-opacity="1" fill-rule="nonzero"/></g></g></g><g clip-path="url(#669745c751)"><g clip-path="url(#062ce7e452)"><g clip-path="url(#049c83b268)"><path fill="#ccccff" d="M 517.414062 374.824219 C 462.3125 408.976562 415.433594 455.003906 379.558594 510.6875 C 356.242188 546.800781 338.625 585.460938 326.773438 625.667969 C 325.519531 629.90625 327.941406 634.34375 332.175781 635.582031 C 336.398438 636.839844 340.835938 634.417969 342.09375 630.191406 C 353.507812 591.429688 370.488281 554.191406 392.972656 519.34375 C 427.601562 465.609375 472.730469 421.292969 525.832031 388.398438 C 529.574219 386.085938 530.730469 381.152344 528.40625 377.410156 C 526.089844 373.65625 521.15625 372.511719 517.414062 374.824219 " fill-opacity="1" fill-rule="nonzero"/></g></g></g><g clip-path="url(#f101be30af)"><g clip-path="url(#aebf2330bf)"><g clip-path="url(#7483c7ced0)"><path fill="#ccccff" d="M 439.613281 251.070312 C 366.019531 297.035156 302.710938 359.089844 255.414062 432.949219 C 225.199219 480.15625 202.183594 531.300781 186.570312 584.507812 C 185.332031 588.742188 187.753906 593.179688 191.988281 594.417969 C 196.207031 595.660156 200.644531 593.238281 201.886719 589.019531 C 217.101562 537.214844 239.488281 487.445312 268.867188 441.550781 C 314.855469 369.730469 376.460938 309.328125 448.070312 264.617188 C 451.804688 262.277344 452.953125 257.359375 450.605469 253.609375 C 448.265625 249.875 443.351562 248.742188 439.597656 251.070312 " fill-opacity="1" fill-rule="nonzero"/></g></g></g><g clip-path="url(#a46ac8dafa)"><g clip-path="url(#83d7ec497f)"><g clip-path="url(#cb3bf0c6bc)"><path fill="#ccccff" d="M 1047.546875 1077.289062 C 1126.753906 1005.230469 1178.144531 905.84375 1189.980469 798.136719 C 1190.464844 793.753906 1187.304688 789.804688 1182.921875 789.320312 C 1178.527344 788.839844 1174.597656 792.007812 1174.109375 796.390625 C 1162.707031 900.160156 1113.144531 996.023438 1036.800781 1065.476562 C 1033.542969 1068.445312 1033.304688 1073.492188 1036.277344 1076.761719 C 1039.246094 1080.019531 1044.289062 1080.257812 1047.546875 1077.289062 " fill-opacity="1" fill-rule="nonzero"/></g></g></g><g clip-path="url(#9fd0582a0b)"><g clip-path="url(#30fd9f410b)"><g clip-path="url(#963e657df0)"><path fill="#ccccff" d="M 1203.828125 1250.066406 C 1250.609375 1207.644531 1291.675781 1158.707031 1325.175781 1104.398438 C 1377.894531 1018.929688 1410.476562 922.761719 1421.445312 824 C 1421.929688 819.617188 1418.757812 815.675781 1414.375 815.1875 C 1409.992188 814.703125 1406.058594 817.859375 1405.558594 822.246094 C 1394.875 918.683594 1363.042969 1012.601562 1311.597656 1096.019531 C 1278.902344 1149.023438 1238.800781 1196.796875 1193.09375 1238.238281 C 1189.835938 1241.207031 1189.585938 1246.253906 1192.550781 1249.511719 C 1195.507812 1252.785156 1200.558594 1253.039062 1203.828125 1250.066406 " fill-opacity="1" fill-rule="nonzero"/></g></g></g><g clip-path="url(#3394639141)"><g clip-path="url(#1dbb90a509)"><g clip-path="url(#11f12a716c)"><path fill="#ccccff" d="M 1145.933594 1186.0625 C 1251.511719 1090.265625 1319.820312 958.054688 1335.554688 814.390625 C 1336.019531 809.996094 1332.863281 806.066406 1328.484375 805.578125 C 1324.105469 805.109375 1320.15625 808.269531 1319.671875 812.648438 C 1304.382812 952.390625 1237.914062 1081.039062 1135.214844 1174.246094 C 1131.941406 1177.203125 1131.703125 1182.25 1134.660156 1185.523438 C 1137.628906 1188.777344 1142.675781 1189.03125 1145.933594 1186.0625 " fill-opacity="1" fill-rule="nonzero"/></g></g></g><g clip-path="url(#3ad78ff5dc)"><g clip-path="url(#c42bad9ec3)"><g clip-path="url(#cc48d71ebf)"><path fill="#ccccff" d="M 1175.664062 1218.964844 C 1219.667969 1179.097656 1258.230469 1133.070312 1289.65625 1082.066406 C 1338.957031 1002.050781 1369.503906 911.898438 1379.765625 819.347656 C 1380.25 814.964844 1377.078125 811.019531 1372.695312 810.535156 C 1368.3125 810.050781 1364.378906 813.203125 1363.878906 817.589844 C 1353.882812 907.808594 1324.085938 995.726562 1276.046875 1073.679688 C 1245.441406 1123.375 1207.847656 1168.269531 1164.941406 1207.132812 C 1161.671875 1210.105469 1161.433594 1215.152344 1164.390625 1218.425781 C 1167.34375 1221.683594 1172.390625 1221.9375 1175.667969 1218.980469 " fill-opacity="1" fill-rule="nonzero"/></g></g></g><g clip-path="url(#f1102574cc)"><g clip-path="url(#90f8f28368)"><g clip-path="url(#5ca0eb696f)"><path fill="#ccccff" d="M 1018.285156 1044.964844 C 1089.992188 980.125 1135.953125 890.828125 1146.355469 793.238281 C 1146.824219 788.84375 1143.636719 784.917969 1139.257812 784.449219 C 1134.863281 783.980469 1130.933594 787.152344 1130.46875 791.546875 C 1120.496094 885.214844 1076.394531 970.886719 1007.566406 1033.132812 C 1004.300781 1036.070312 1004.050781 1041.136719 1007.003906 1044.394531 C 1009.960938 1047.667969 1015.011719 1047.921875 1018.285156 1044.964844 " fill-opacity="1" fill-rule="nonzero"/></g></g></g><g clip-path="url(#b9b3a86a28)"><g clip-path="url(#f67fe39a11)"><g clip-path="url(#eb9026dc38)"><path fill="#ccccff" d="M 1080.195312 1113.441406 C 1168.503906 1033.621094 1225.238281 923.59375 1238.085938 803.480469 C 1238.554688 799.085938 1235.382812 795.15625 1230.988281 794.691406 C 1226.609375 794.21875 1222.679688 797.390625 1222.199219 801.789062 C 1209.78125 917.980469 1154.910156 1024.398438 1069.5 1101.585938 C 1066.226562 1104.542969 1065.972656 1109.59375 1068.929688 1112.867188 C 1071.882812 1116.125 1076.9375 1116.394531 1080.195312 1113.441406 " fill-opacity="1" fill-rule="nonzero"/></g></g></g><g clip-path="url(#76b7f7aa41)"><g clip-path="url(#9d734f974a)"><g clip-path="url(#7bf4d29560)"><path fill="#ccccff" d="M 1112.3125 1148.882812 C 1208.640625 1061.039062 1271.265625 939.84375 1285.898438 808.859375 C 1286.382812 804.476562 1283.226562 800.527344 1278.84375 800.042969 C 1274.457031 799.542969 1270.507812 802.699219 1270.023438 807.082031 C 1255.855469 934.152344 1195.027344 1051.867188 1101.550781 1137.078125 C 1098.296875 1140.046875 1098.0625 1145.105469 1101.03125 1148.363281 C 1104.011719 1151.613281 1109.058594 1151.851562 1112.3125 1148.882812 " fill-opacity="1" fill-rule="nonzero"/></g></g></g></svg>